<?xml version="1.0" encoding="iso-8859-1"?>
<!-- Generator: Adobe Illustrator 19.0.0, SVG Export Plug-In . SVG Version: 6.00 Build 0)  -->
<svg version="1.1" id="Capa_1" xmlns="http://www.w3.org/2000/svg" xmlns:xlink="http://www.w3.org/1999/xlink" x="0px" y="0px"
	 viewBox="0 0 512 512" style="enable-background:new 0 0 512 512;" xml:space="preserve">
<path style="fill:#CCCCCC;" d="M196.267,8.533h307.2v409.6h-307.2V8.533z"/>
<path style="fill:#0071BC;" d="M196.267,93.867V8.533l119.467,85.333H196.267z"/>
<path style="fill:#E6E6E6;" d="M8.533,93.867h307.2v409.6H8.533V93.867z"/>
<path style="fill:#DA4836;" d="M93.867,170.667h68.267v68.267H93.867V170.667z"/>
<g>
	<path style="fill:#999999;" d="M264.533,264.533l-102.4-25.6v-68.267l102.4-25.6V264.533z"/>
	<path style="fill:#999999;" d="M76.8,187.733h17.067v34.133H76.8c-9.429,0-17.067-7.637-17.067-17.067
		C59.733,195.371,67.371,187.733,76.8,187.733z"/>
	<path style="fill:#999999;" d="M110.933,238.933h34.133v51.2c0,9.429-7.637,17.067-17.067,17.067
		c-9.429,0-17.067-7.637-17.067-17.067V238.933z"/>
</g>
<g>
	<path style="fill:#FBB03B;" d="M358.4,51.2h102.4v51.2H358.4V51.2z"/>
	<path style="fill:#FBB03B;" d="M358.4,256h102.4v51.2H358.4V256z"/>
	<path style="fill:#FBB03B;" d="M51.2,392.533h68.267V460.8H51.2V392.533z"/>
</g>
<path d="M76.8,230.4h8.533v8.533c0,4.71,3.823,8.533,8.533,8.533h8.533v42.667c0,14.14,11.46,25.6,25.6,25.6
	c14.14,0,25.6-11.46,25.6-25.6v-42.667h7.492l101.367,25.344c4.574,1.143,9.207-1.63,10.351-6.204
	c0.171-0.674,0.256-1.374,0.256-2.074V145.067c0-2.628-1.212-5.111-3.285-6.724c-2.065-1.638-4.77-2.21-7.322-1.553l-101.367,25.344
	H93.867c-4.71,0-8.533,3.823-8.533,8.533v8.533H76.8c-14.14,0-25.6,11.46-25.6,25.6C51.2,218.94,62.66,230.4,76.8,230.4z
	 M136.533,290.133c0,4.71-3.823,8.533-8.533,8.533c-4.71,0-8.533-3.823-8.533-8.533v-42.667h17.067V290.133z M256,253.602
	l-85.333-21.333v-54.938L256,155.998V253.602z M102.4,179.2h51.2v51.2h-51.2V179.2z M76.8,196.267h8.533v17.067H76.8
	c-4.71,0-8.533-3.823-8.533-8.533C68.267,200.09,72.09,196.267,76.8,196.267z"/>
<path d="M503.467,0h-307.2c-4.71,0-8.533,3.823-8.533,8.533v76.8H8.533C3.823,85.333,0,89.156,0,93.867v409.6
	C0,508.177,3.823,512,8.533,512h307.2c4.71,0,8.533-3.823,8.533-8.533v-76.8h179.2c4.71,0,8.533-3.823,8.533-8.533V8.533
	C512,3.823,508.177,0,503.467,0z M204.8,25.114l84.309,60.22H204.8V25.114z M307.2,494.933H17.067V102.4H307.2V494.933z
	 M494.933,409.6H324.267V93.867c-0.034-2.739-1.399-5.291-3.661-6.827l0.085-0.119l-97.801-69.854h272.043L494.933,409.6z"/>
<path d="M358.4,110.933h102.4c4.71,0,8.533-3.823,8.533-8.533V51.2c0-4.71-3.823-8.533-8.533-8.533H358.4
	c-4.71,0-8.533,3.823-8.533,8.533v51.2C349.867,107.11,353.69,110.933,358.4,110.933z M366.933,59.733h85.333v34.133h-85.333V59.733
	z"/>
<path d="M358.4,315.733h102.4c4.71,0,8.533-3.823,8.533-8.533V256c0-4.71-3.823-8.533-8.533-8.533H358.4
	c-4.71,0-8.533,3.823-8.533,8.533v51.2C349.867,311.91,353.69,315.733,358.4,315.733z M366.933,264.533h85.333v34.133h-85.333
	V264.533z"/>
<path d="M51.2,469.333h68.267c4.71,0,8.533-3.823,8.533-8.533v-68.267c0-4.71-3.823-8.533-8.533-8.533H51.2
	c-4.71,0-8.533,3.823-8.533,8.533V460.8C42.667,465.51,46.49,469.333,51.2,469.333z M59.733,401.067h51.2v51.2h-51.2V401.067z"/>
<path d="M213.333,384H281.6v17.067h-68.267V384z"/>
<path d="M153.6,418.133h128V435.2h-128V418.133z"/>
<path d="M153.6,452.267H256v17.067H153.6V452.267z"/>
<path d="M409.6,128h59.733v17.067H409.6V128z"/>
<path d="M349.867,162.133h119.467V179.2H349.867V162.133z"/>
<path d="M349.867,196.267h93.867v17.067h-93.867V196.267z"/>
<path d="M409.6,332.8h59.733v17.067H409.6V332.8z"/>
<path d="M349.867,366.933h119.467V384H349.867V366.933z"/>
<path d="M179.2,384h17.067v17.067H179.2V384z"/>
<path d="M375.467,332.8h17.067v17.067h-17.067V332.8z"/>
<path d="M375.467,128h17.067v17.067h-17.067V128z"/>
<g>
</g>
<g>
</g>
<g>
</g>
<g>
</g>
<g>
</g>
<g>
</g>
<g>
</g>
<g>
</g>
<g>
</g>
<g>
</g>
<g>
</g>
<g>
</g>
<g>
</g>
<g>
</g>
<g>
</g>
</svg>
