<svg id="Capa_1" enable-background="new 0 0 512 512" height="512" viewBox="0 0 512 512" width="512" xmlns="http://www.w3.org/2000/svg"><g><path d="m216.194 195.287c0 14.661-11.885 26.545-26.545 26.545h-26.521c-14.661 0-26.545-11.885-26.545-26.545v-39.471h79.612v39.471z" fill="#ffc250"/><path d="m295.806 195.287c0 14.661-11.885 26.545-26.545 26.545h-26.521c-14.661 0-26.545-11.885-26.545-26.545v-39.471h79.612v39.471z" fill="#9dc6fb"/><path d="m375.418 195.287c0 14.661-11.885 26.545-26.545 26.545h-26.521c-14.661 0-26.545-11.885-26.545-26.545v-39.471h79.612v39.471z" fill="#ffc250"/><path d="m165.748 96.925-29.166 58.89h79.612l9.722-58.89z" fill="#ffd064"/><path d="m225.916 96.925-9.722 58.89h79.612l-9.722-58.89z" fill="#bed8fb"/><path d="m346.252 96.925h-60.168l9.722 58.89h79.612z" fill="#ffd064"/><path d="m461.372 468.708h-410.744c-1.364 0-2.47 1.106-2.47 2.47v30.853c0 1.364 1.106 2.47 2.47 2.47h410.744c1.364 0 2.47-1.106 2.47-2.47v-30.853c0-1.364-1.106-2.47-2.47-2.47z" fill="#bed8fb"/><path d="m428.484 221.832h-26.521c-14.661 0-26.545-11.885-26.545-26.545 0 14.661-11.885 26.545-26.545 26.545h-26.521c-14.661 0-26.545-11.885-26.545-26.545 0 14.661-11.885 26.545-26.545 26.545h-26.521c-14.661 0-26.545-11.885-26.545-26.545 0 14.661-11.885 26.545-26.545 26.545h-26.521c-14.66 0-26.545-11.885-26.545-26.545 0 14.661-11.885 26.545-26.545 26.545h-26.524c-3.962 0-7.722-.869-11.099-2.425v249.301h367.167v-249.301c-3.378 1.556-7.137 2.425-11.1 2.425z" fill="#f1eaf9"/><path d="m428.484 221.832h-26.521c-.802 0-1.596-.036-2.38-.105v154.083c0 40.261-32.638 72.899-72.899 72.899h-254.267v20h367.167v-249.302c-3.378 1.556-7.137 2.425-11.1 2.425z" fill="#dddaec"/><path d="m165.748 96.925h-60.168l-46.02 55.753c-.782.947-1.398 2.008-1.833 3.137h78.855z" fill="#bed8fb"/><path d="m56.97 159.883v35.404c0 14.661 11.885 26.545 26.545 26.545h26.521c14.661 0 26.545-11.885 26.545-26.545v-39.471h-78.854c-.496 1.287-.757 2.665-.757 4.067z" fill="#9dc6fb"/><path d="m452.44 152.678-46.02-55.753h-60.168l29.166 58.89h78.855c-.435-1.129-1.051-2.19-1.833-3.137z" fill="#bed8fb"/><path d="m375.418 155.815v39.471c0 14.661 11.885 26.545 26.545 26.545h26.521c14.66 0 26.545-11.885 26.545-26.545v-35.404c0-1.401-.26-2.779-.756-4.067z" fill="#9dc6fb"/><path d="m406.481 7.5h-300.962c-2.763 0-5.003 2.24-5.003 5.003v79.419c0 2.763 2.24 5.003 5.003 5.003h300.962c2.763 0 5.003-2.24 5.003-5.003v-79.419c0-2.763-2.24-5.003-5.003-5.003z" fill="#f1eaf9"/><path d="m125.517 70.549v-36.673c0-.76.616-1.376 1.376-1.376h258.214c.76 0 1.376.616 1.376 1.376v36.672c0 .76-.616 1.376-1.376 1.376h-258.214c-.76.001-1.376-.615-1.376-1.375z" fill="#bed8fb"/><path d="m303.352 468.708h-94.703v-192.598c0-.953.772-1.725 1.725-1.725h91.253c.953 0 1.725.772 1.725 1.725z" fill="#d0cee7"/><path d="m208.648 448.708h94.703v20h-94.703z" fill="#beb9dd"/><path d="m412.858 377.242h-82.781c-.953 0-1.725-.772-1.725-1.725v-99.407c0-.953.772-1.725 1.725-1.725h82.781c.953 0 1.725.772 1.725 1.725v99.407c0 .952-.772 1.725-1.725 1.725z" fill="#d0cee7"/><path d="m412.858 377.242c.953 0 1.725-.772 1.725-1.725v-99.407c0-.953-.772-1.725-1.725-1.725h-13.275v101.425c0 .479-.005.956-.014 1.432z" fill="#beb9dd"/><path d="m99.142 377.242h82.781c.953 0 1.725-.772 1.725-1.725v-99.407c0-.953-.772-1.725-1.725-1.725h-82.781c-.953 0-1.725.772-1.725 1.725v99.407c0 .952.772 1.725 1.725 1.725z" fill="#d0cee7"/><path d="m72.417 421.549h136.232v47.158h-136.232z" fill="#ffd064"/><path d="m72.417 448.708h136.232v20h-136.232z" fill="#ffc250"/><path d="m303.352 421.549h136.232v47.158h-136.232z" fill="#ffd064"/><path d="m326.685 448.708h-23.333v20h136.232v-47.159h-56.132c-13.364 16.564-33.828 27.159-56.767 27.159z" fill="#ffc250"/><path d="m50.628 512h410.744c5.497 0 9.97-4.473 9.97-9.97v-30.853c0-5.497-4.473-9.969-9.97-9.969h-14.289v-237.417c9.294-6.085 15.446-16.59 15.446-28.504v-35.404c0-4.282-1.461-8.53-4.305-11.979l-40.974-49.639c1.1-1.861 1.732-4.029 1.732-6.343v-79.419c.001-6.894-5.607-12.503-12.502-12.503h-300.961c-6.894 0-12.502 5.609-12.502 12.503v79.419c0 2.314.632 4.482 1.732 6.343l-40.974 49.639c-2.743 3.324-4.305 7.544-4.305 11.979v35.404c0 11.914 6.152 22.418 15.446 28.503v237.418h-14.288c-5.498 0-9.97 4.472-9.97 9.969v30.853c0 5.497 4.472 9.97 9.97 9.97zm396.901-316.713c0 10.501-8.544 19.045-19.045 19.045h-26.521c-10.501 0-19.045-8.544-19.045-19.045v-31.972h64.611zm-338.414-90.862h44.55l-21.737 43.89h-59.042zm107.961 0-7.245 43.891h-61.165l21.737-43.891zm62.645 0 7.246 43.891h-61.933l7.246-43.891zm123.164 0 36.229 43.89h-59.041l-21.737-43.89zm-61.288 0 21.737 43.891h-61.166l-7.245-43.891zm-197.515 58.89h64.612v31.971c0 10.501-8.543 19.045-19.045 19.045h-26.521c-10.502 0-19.045-8.544-19.045-19.045 0-6.927-.001 17.142-.001-31.971zm79.612 0h64.612v31.971c0 10.501-8.544 19.045-19.045 19.045h-26.521c-10.501 0-19.045-8.544-19.045-19.045v-31.971zm79.612 0h64.612v31.971c0 10.501-8.544 19.045-19.046 19.045h-26.521c-10.502 0-19.046-8.544-19.046-19.045v-31.971zm-195.289-148.315h295.967v74.425c-34.229 0-257.568 0-295.967 0zm-43.546 148.315h64.611v31.972c0 10.502-8.543 19.045-19.045 19.045h-26.521c-10.501 0-19.045-8.544-19.045-19.045zm19.045 66.017h26.521c10.721 0 20.3-4.981 26.545-12.751 6.245 7.77 15.824 12.751 26.545 12.751h26.521c10.721 0 20.3-4.981 26.545-12.751 6.245 7.77 15.824 12.751 26.545 12.751h26.521c10.721 0 20.3-4.981 26.545-12.751 6.245 7.77 15.824 12.751 26.546 12.751h26.521c10.721 0 20.301-4.981 26.546-12.751 6.245 7.77 15.824 12.751 26.545 12.751h26.521c1.215 0 2.416-.065 3.599-.189v184.907h-121.23v-137.94c0-5.087-4.139-9.225-9.226-9.225h-91.252c-5.087 0-9.225 4.138-9.225 9.225v22.373c0 4.142 3.358 7.5 7.5 7.5s7.5-3.358 7.5-7.5v-16.598h79.703v179.323h-79.703v-127.726c0-4.142-3.358-7.5-7.5-7.5s-7.5 3.358-7.5 7.5v80.567h-121.232v-184.906c1.183.124 2.383.189 3.599.189zm-3.599 199.717h121.232v32.159h-121.232zm-24.259 47.159h316.418c4.143 0 7.5-3.358 7.5-7.5s-3.357-7.5-7.5-7.5h-61.225v-32.159h121.231v32.159h-25.007c-4.143 0-7.5 3.358-7.5 7.5s3.357 7.5 7.5 7.5h49.266v20.792h-400.683z"/><path d="m311.252 79.425c4.143 0 7.5-3.358 7.5-7.5s-3.357-7.5-7.5-7.5h-178.235v-24.425h245.967v24.425h-32.731c-4.143 0-7.5 3.358-7.5 7.5s3.357 7.5 7.5 7.5h38.855c4.895 0 8.876-3.982 8.876-8.876v-36.673c0-4.895-3.981-8.876-8.876-8.876h-258.215c-4.895 0-8.876 3.982-8.876 8.876v36.672c0 4.895 3.982 8.876 8.876 8.876h184.359z"/><path d="m330.077 384.742h82.781c5.087 0 9.225-4.138 9.225-9.225v-99.407c0-5.087-4.138-9.225-9.225-9.225h-82.781c-5.087 0-9.226 4.138-9.226 9.225v99.407c.001 5.087 4.139 9.225 9.226 9.225zm5.775-102.857h71.231v87.857h-71.231z"/><path d="m99.142 384.742h82.781c5.087 0 9.226-4.138 9.226-9.225v-99.407c0-5.087-4.139-9.225-9.226-9.225h-82.781c-5.087 0-9.226 4.138-9.226 9.225v99.407c.001 5.087 4.139 9.225 9.226 9.225zm5.775-102.857h71.232v87.857h-71.232z"/><path d="m278.352 408.478c4.143 0 7.5-3.358 7.5-7.5v-49.451c0-4.142-3.357-7.5-7.5-7.5s-7.5 3.358-7.5 7.5v49.451c0 4.142 3.357 7.5 7.5 7.5z"/></g></svg>